# xmcd CD database file
#
# Track frame offsets:
#	150
#	19930
#	35857
#	49247
#	66577
#	91320
#	113540
#	136480
#	160317
#	184050
#	202295
#	237352
#	267367
#
# Disc length: 3823 seconds
#
# Revision: 0
# Processed by: cddbd v1.5.2PL0 Copyright (c) Steve Scherf et al.
# Submitted via: CDex 1.51
#
DISCID=c60eed0d
DTITLE=Ernest Ranglin - Order of Distinction
DYEAR=2006
DGENRE=Jazz
TTITLE0=Pocomania
TTITLE1=3 Pope
TTITLE2=My Boy Lollipop
TTITLE3=Satta Massagana
TTITLE4=Ball of Fire
TTITLE5=Many Rivers to Cross
TTITLE6=Mandeville
TTITLE7=Spur Tree
TTITLE8=Hurts to Be Alone
TTITLE9=Grandfather Clock
TTITLE10=Straight Flush
TTITLE11=Ranchin'
TTITLE12=Pimento Walf
EXTD=YEAR: 2006
EXTT0=
EXTT1=
EXTT2=
EXTT3=
EXTT4=
EXTT5=
EXTT6=
EXTT7=
EXTT8=
EXTT9=
EXTT10=
EXTT11=
EXTT12=
PLAYORDER=
